<?xml version="1.0" encoding="UTF-8" standalone="no"?>
<!DOCTYPE svg PUBLIC "-//W3C//DTD SVG 1.1//EN" "http://www.w3.org/Graphics/SVG/1.1/DTD/svg11.dtd">
<svg version="1.1" xmlns="http://www.w3.org/2000/svg" xmlns:xlink="http://www.w3.org/1999/xlink" preserveAspectRatio="xMidYMid meet" viewBox="0 0 640 640" width="640" height="640"><defs><path d="M221.19 278.84C221.19 219.39 266.76 171.19 322.98 171.19C379.19 171.19 424.76 219.39 424.76 278.84C424.76 338.29 379.19 386.49 322.98 477.14C266.76 386.49 221.19 338.29 221.19 278.84Z" id="c1xnDRWMzN"></path><linearGradient id="gradientc1Fz7GPHw3" gradientUnits="userSpaceOnUse" x1="322.98" y1="477.14" x2="322.98" y2="171.19"><stop style="stop-color: #2700ff;stop-opacity: 1" offset="0%"></stop><stop style="stop-color: #ff0000;stop-opacity: 1" offset="100%"></stop></linearGradient><path d="M369.4 277.74C369.4 303.36 348.6 324.17 322.98 324.17C297.35 324.17 276.55 303.36 276.55 277.74C276.55 252.11 297.35 231.31 322.98 231.31C348.6 231.31 369.4 252.11 369.4 277.74Z" id="atU74SLHm"></path><path d="M388.59 328.26C400.95 335.98 404.7 352.25 396.99 364.6C380.98 390.22 346.94 444.7 330.93 470.31C323.21 482.66 306.94 486.42 294.59 478.7C288.67 475 293.28 477.89 287.36 474.19C275.01 466.47 271.25 450.2 278.97 437.84C294.98 412.23 329.02 357.75 345.03 332.13C352.75 319.78 369.02 316.02 381.37 323.74C387.29 327.44 382.68 324.56 388.59 328.26Z" id="e1HGiqgBaf"></path><linearGradient id="gradientd7xwvAcNqx" gradientUnits="userSpaceOnUse" x1="384.98" y1="326" x2="298.87" y2="469.35"><stop style="stop-color: #9d0072;stop-opacity: 0" offset="0%"></stop><stop style="stop-color: #ffffff;stop-opacity: 1" offset="59.52933586884544%"></stop><stop style="stop-color: #ffffff;stop-opacity: 1" offset="100%"></stop></linearGradient></defs><g><g><g><use xlink:href="#c1xnDRWMzN" opacity="1" fill="url(#gradientc1Fz7GPHw3)"></use></g><g><use xlink:href="#atU74SLHm" opacity="1" fill="#ffffff" fill-opacity="1"></use></g><g><use xlink:href="#e1HGiqgBaf" opacity="1" fill="url(#gradientd7xwvAcNqx)"></use></g></g></g></svg>