<svg xmlns="http://www.w3.org/2000/svg" width="339.568" height="254.807" viewBox="0 0 339.568 254.807">
  <g id="Group_3" data-name="Group 3" transform="translate(-45.356 -1604.25)">
    <path id="Path_3" data-name="Path 3" d="M926.137,1775.135v61h54.772v-61Z" transform="translate(-711.349 -124.664)" fill="none" stroke="#fff" stroke-width="1"/>
    <path id="Path_4" data-name="Path 4" d="M928.558,1777.582h17l2.726,2.726h9.7l2.726-2.726h15.361v52.738h-7.409l-4.687-4.687H940.108l-4.687,4.687h-6.863Z" transform="translate(-710.586 -122.578)" fill="#fff"/>
    <path id="Path_5" data-name="Path 5" d="M998.06,1794.816l4.393,4.393h7.218v65.779H871.725" transform="translate(-728.5 -118.461)" fill="none" stroke="#fff" stroke-width="1"/>
    <path id="Path_6" data-name="Path 6" d="M998.165,1797.135l3.735,3.735h5.478v60.116H871.394" transform="translate(-728.605 -117.73)" fill="none" stroke="#fff" stroke-width="1"/>
    <path id="Path_7" data-name="Path 7" d="M997.956,1799.786l3.309,3.309h3.508v53.352H872.056l8.574-8.574h52.015l4.355-4.355v-10.309h17.017l3.847-3.847h5.557l3.847,3.847v5.129H941.194v11.541h50.438l6.323-6.323v-15.9l-6.323,6.323v9.542H972.4l5.18-5.18v-8.976" transform="translate(-728.396 -116.894)" fill="none" stroke="#fff" stroke-width="1"/>
    <path id="Path_8" data-name="Path 8" d="M998.165,1791.17h40.159l6.552,6.552v58.171l-6.552,6.552v10.228l-2.509,2.509H871.394" transform="translate(-728.605 -119.61)" fill="none" stroke="#fff" stroke-width="1"/>
    <path id="Path_9" data-name="Path 9" d="M1021.4,1793.425h41.615l7.968,7.968v61.08l6.267,6.268v30.154l5.15,5.15v17.36l8.674-8.674v-13.836l-4.713-4.713V1779.261l8.95-8.95v4.145l-6.167,6.167v4.2l6.167-6.167v30.195l3.954,3.954v26.9l-3.954,3.955v23.867l3.954,3.955v18.3l-4.392,4.392v25.2l-5.729,5.729v5.906l-2.783,2.783H879.387l-4.33-4.33h-31.08v-56.626l-4.934-4.934h-17.83l-4.934,4.934v51.85l-4.776,4.776v23.551l-1.722,1.722h-12.09v-25.273l4.776-4.776V1914.07l-4.776-4.776v-6.858l4.776-4.776v-9.135l-4.776-4.776v-10.905l4.776-4.776H806.8v4.776l-4.329,4.329v5.535H806.8v14.952l-4.776,4.776v6.858l4.776,4.776v10.623l-4.776,4.776v20.769H806.8v-20.769l6.137-6.137v-9.262l-4.776-4.776v-6.858l3.346-3.346v-16.382l-3.346-3.346,2.189-2.189v-11.917h-7.879v-10.117l2.558-2.558h47.55v2.558H808.159l-3.132,3.132h47.55v9.8h-8.6l4.776,4.776v51.85h26.3l4.776,4.776h60.255v-29.31H884.7l-4.865,4.865h54.438v19.669H898.609v-11.887h28.328v10.527h3.794v-14.038H895.321v17.169h35.409" transform="translate(-751.836 -126.185)" fill="none" stroke="#ff0404" stroke-width="1"/>
    <path id="Path_14" data-name="Path 14" d="M1021.4,1793.425h41.615l7.968,7.968v61.08l6.267,6.268v30.154l5.15,5.15v17.36l8.674-8.674v-13.836l-4.713-4.713V1779.261l8.95-8.95v4.145l-6.167,6.167v4.2l6.167-6.167v30.195l3.954,3.954v26.9l-3.954,3.955v23.867l3.954,3.955v18.3l-4.392,4.392v25.2l-5.729,5.729v5.906l-2.783,2.783H879.387l-4.33-4.33h-31.08v-56.626l-4.934-4.934h-17.83l-4.934,4.934v51.85l-4.776,4.776v23.551l-1.722,1.722h-12.09v-25.273l4.776-4.776V1914.07l-4.776-4.776v-6.858l4.776-4.776v-9.135l-4.776-4.776v-10.905l4.776-4.776H806.8v4.776l-4.329,4.329v5.535H806.8v14.952l-4.776,4.776v6.858l4.776,4.776v10.623l-4.776,4.776v20.769H806.8v-20.769l6.137-6.137v-9.262l-4.776-4.776v-6.858l3.346-3.346v-16.382l-3.346-3.346,2.189-2.189v-11.917h-7.879v-10.117l2.558-2.558h47.55v2.558H808.159l-3.132,3.132h47.55v9.8h-8.6l4.776,4.776v51.85h26.3l4.776,4.776h60.255v-29.31H884.7l-4.865,4.865h54.438v19.669H898.609v-11.887h28.328v10.527h3.794v-14.038H895.321v17.169h35.409" transform="translate(-714.836 -96.185)" fill="none" stroke="#ff0404" stroke-width="1" stroke-dasharray="13 2" opacity="0.29"/>
    <path id="Path_10" data-name="Path 10" d="M1067.151,1784l3.128-3.128v26.8l3.691,3.691v21.3l-6.819,6.819v26.39l6.819,6.819v6.991l-6.819,6.819,3.128,3.128v23.591l-9.13,9.13h-13.726v-42.667h-4.275l-3.353,3.353H872.83l-3.466,3.466h167.209v5.346l3.223,3.223v18.149l-6.879,6.879v4.958H920.177v-11.837l5.423-5.423v-7.729l-5.423-5.423v-5.016h110.806v5.441l5,5v11.179l-7.266,7.266v-10.716l-7.729-7.729H987.91l-7.729,7.729H967.853l-9.931-9.931H937.275l-6.855,6.855v6.526l5.393,5.393v-5.393l-3.45-3.45,3.45-3.45h17.9v12.292h26.466l3.42-3.42h37.384l3.42,3.42v3.459H985.28l-2.251,2.251H949.441v-14.552H938.59v8.842h5.261v-5.393h1.644v8.852l-2.251,2.251H925.6v-5.71l3.42-3.42" transform="translate(-729.245 -122.857)" fill="none" stroke="#fff" stroke-width="1" stroke-dasharray="32 1"/>
    <path id="Path_11" data-name="Path 11" d="M918.124,1770.311h63.689l7.682,7.682v9.365h38.054l7.706,7.706v44.442l6.22,6.22v17.29l2.656,2.656v30.684" transform="translate(-713.875 -126.185)" fill="none" stroke="#fff" stroke-width="1"/>
    <path id="Path_12" data-name="Path 12" d="M958.923,1788.872h-7.086l-3.87,3.87H928.821l-3.87-3.87H895.612l-8.386-8.386v-33.372l-6.743-6.743H828.865l-6.742,6.743v56.225l6.742,6.742V1750.4h51.618l3.12,3.121v26.963l12.008,12.008h29.339l3.87,3.87h19.147l3.87-3.87h7.086v5.256H953.81l-5.59,5.59h-19.4l-3.87-3.87H895.612L883.6,1787.462h-3.12v-31.8h-48.33v6.247l7.4,7.4h12.328l5.324-5.324H846.949l-2.675,2.675-4.75-4.75H864.7v26.962l10.6,10.6h13.4l6.9,6.905h29.339l3.707,3.707h19.309l3.87-3.869h7.086" transform="translate(-744.136 -135.622)" fill="none" stroke="#fff" stroke-width="1"/>
    <path id="Path_13" data-name="Path 13" d="M944.541,1794.816h-6.264l-4.41,4.41v7.338l-8.723,8.723v30.6H878.435l-10.686,10.686v6.839l4.874,4.874v-3.164l16.411-16.411h39.412l2.824-2.823v-30.6l7.008-7.008v-9.054h6.264" transform="translate(-729.754 -118.461)" fill="none" stroke="#fff" stroke-width="1"/>
  </g>
</svg>
